<svg xmlns="http://www.w3.org/2000/svg" width="16" height="14" viewBox="0 0 16 14">
    <path fill="#050505" fill-rule="evenodd" d="M15.823 12.033L9.156.658A1.338 1.338 0 0 0 8 0c-.494 0-.925.265-1.156.658L.178 12.033a1.29 1.29 0 0 0-.178.655C0 13.412.597 14 1.333 14h13.334c.736 0 1.333-.588 1.333-1.313a1.29 1.29 0 0 0-.177-.654zM8 11.418a1.015 1.015 0 0 1-1.022-1.005c0-.556.458-1.007 1.022-1.007.564 0 1.022.451 1.022 1.007 0 .554-.458 1.005-1.022 1.005zm1.008-5.65L8.57 8.32a.574.574 0 0 1-.57.473.572.572 0 0 1-.57-.473l-.438-2.551A1.015 1.015 0 0 1 8 4.594a1.015 1.015 0 0 1 1.008 1.174z"/>
</svg>
